<svg xmlns="http://www.w3.org/2000/svg" xmlns:xlink="http://www.w3.org/1999/xlink" width="70" height="47" viewBox="0 0 70 47">
  <defs>
    <clipPath id="clip-path">
      <path id="Rounded_Rectangle_7_copy" data-name="Rounded Rectangle 7 copy" d="M656.364,637h57.273A6.387,6.387,0,0,1,720,643.409v34.182A6.386,6.386,0,0,1,713.636,684H656.364A6.386,6.386,0,0,1,650,677.591V643.409A6.387,6.387,0,0,1,656.364,637Z" fill="#f6d660"/>
    </clipPath>
  </defs>
  <g id="Mali" transform="translate(-650 -637)">
    <g id="Rounded_Rectangle_7_copy-2" data-name="Rounded Rectangle 7 copy">
      <path id="Rounded_Rectangle_7_copy-3" data-name="Rounded Rectangle 7 copy" d="M656.364,637h57.273A6.387,6.387,0,0,1,720,643.409v34.182A6.386,6.386,0,0,1,713.636,684H656.364A6.386,6.386,0,0,1,650,677.591V643.409A6.387,6.387,0,0,1,656.364,637Z" fill="#f6d660"/>
      <g id="Clip" clip-path="url(#clip-path)">
        <rect id="Rectangle_1_copy_15" data-name="Rectangle 1 copy 15" width="24" height="47" transform="translate(697 637)" fill="#ed5565"/>
        <rect id="Rectangle_1_copy_16" data-name="Rectangle 1 copy 16" width="24" height="47" transform="translate(649 637)" fill="#57a863"/>
      </g>
    </g>
  </g>
</svg>
