<svg xmlns="http://www.w3.org/2000/svg" xmlns:xlink="http://www.w3.org/1999/xlink" width="70" height="47" viewBox="0 0 70 47">
  <defs>
    <clipPath id="clip-path">
      <path id="Rounded_Rectangle_7_copy" data-name="Rounded Rectangle 7 copy" d="M256.364,466h57.273A6.387,6.387,0,0,1,320,472.409v34.182A6.386,6.386,0,0,1,313.636,513H256.364A6.387,6.387,0,0,1,250,506.591V472.409A6.387,6.387,0,0,1,256.364,466Z" fill="#f5f7fa"/>
    </clipPath>
  </defs>
  <g id="Czech_Republic" data-name="Czech Republic" transform="translate(-250 -466)">
    <g id="Rounded_Rectangle_7_copy-2" data-name="Rounded Rectangle 7 copy">
      <path id="Rounded_Rectangle_7_copy-3" data-name="Rounded Rectangle 7 copy" d="M256.364,466h57.273A6.387,6.387,0,0,1,320,472.409v34.182A6.386,6.386,0,0,1,313.636,513H256.364A6.387,6.387,0,0,1,250,506.591V472.409A6.387,6.387,0,0,1,256.364,466Z" fill="#f5f7fa"/>
      <g id="Clip" clip-path="url(#clip-path)">
        <rect id="Rectangle_1_copy_12" data-name="Rectangle 1 copy 12" width="70" height="23" transform="translate(250 490)" fill="#ed5565"/>
        <path id="Rectangle_4" data-name="Rectangle 4" d="M250,466l25,24h0l-25,23Z" fill="#4758a9"/>
      </g>
    </g>
  </g>
</svg>
