<svg xmlns="http://www.w3.org/2000/svg" xmlns:xlink="http://www.w3.org/1999/xlink" width="70" height="47" viewBox="0 0 70 47">
  <defs>
    <clipPath id="clip-path">
      <path id="Rounded_Rectangle_7_copy" data-name="Rounded Rectangle 7 copy" d="M416.364,295h57.273A6.386,6.386,0,0,1,480,301.409v34.182A6.386,6.386,0,0,1,473.636,342H416.364A6.386,6.386,0,0,1,410,335.591V301.409A6.387,6.387,0,0,1,416.364,295Z" fill="#f5f7fa"/>
    </clipPath>
  </defs>
  <g id="Grecee" transform="translate(-410 -295)">
    <g id="Rounded_Rectangle_7_copy-2" data-name="Rounded Rectangle 7 copy">
      <path id="Rounded_Rectangle_7_copy-3" data-name="Rounded Rectangle 7 copy" d="M416.364,295h57.273A6.386,6.386,0,0,1,480,301.409v34.182A6.386,6.386,0,0,1,473.636,342H416.364A6.386,6.386,0,0,1,410,335.591V301.409A6.387,6.387,0,0,1,416.364,295Z" fill="#f5f7fa"/>
      <g id="Clip" clip-path="url(#clip-path)">
        <rect id="Rectangle_1_copy_26" data-name="Rectangle 1 copy 26" width="70" height="6" transform="translate(410 306)" fill="#4a89dc"/>
        <rect id="Rectangle_1_copy_27" data-name="Rectangle 1 copy 27" width="70" height="6" transform="translate(410 295)" fill="#4a89dc"/>
        <rect id="Rectangle_1_copy_28" data-name="Rectangle 1 copy 28" width="70" height="6" transform="translate(410 316)" fill="#4a89dc"/>
        <rect id="Rectangle_1_copy_29" data-name="Rectangle 1 copy 29" width="70" height="6" transform="translate(410 327)" fill="#4a89dc"/>
        <rect id="Rectangle_1_copy_30" data-name="Rectangle 1 copy 30" width="70" height="6" transform="translate(410 338)" fill="#4a89dc"/>
        <rect id="Rectangle_22" data-name="Rectangle 22" width="27" height="27" transform="translate(410 295)" fill="#4a89dc"/>
        <rect id="Rectangle_23" data-name="Rectangle 23" width="6" height="27" transform="translate(421 295)" fill="#fff"/>
        <rect id="Rectangle_23_copy" data-name="Rectangle 23 copy" width="27" height="6" transform="translate(410 306)" fill="#fff"/>
      </g>
    </g>
  </g>
</svg>
