<svg id="Spain" xmlns="http://www.w3.org/2000/svg" width="69.456" height="46.621" viewBox="0 0 69.456 46.621">
  <rect id="Rectangle-path" width="69.436" height="26.782" transform="translate(0.01 9.87)" fill="#ffce54"/>
  <path id="Shape" d="M63.757.56H6.949A6.309,6.309,0,0,0,.64,6.869v3.611H70.076V6.869A6.309,6.309,0,0,0,63.757.56Z" transform="translate(-0.62 -0.56)" fill="#ed5565"/>
  <path id="Shape-2" data-name="Shape" d="M.63,41.171a6.309,6.309,0,0,0,6.309,6.309H63.747a6.309,6.309,0,0,0,6.309-6.309V37.56H.62Z" transform="translate(-0.62 -0.858)" fill="#ed5565"/>
  <path id="Shape-3" data-name="Shape" d="M11.71,27.13v2.847a2.976,2.976,0,0,0,2.976,2.976h1.686V27.17Z" transform="translate(-0.709 -0.774)" fill="#f6d660"/>
  <path id="Shape-4" data-name="Shape" d="M13.21,27.13v5.376a2.976,2.976,0,0,0,.5.228v-5.6Z" transform="translate(-0.721 -0.774)" fill="#ed5565"/>
  <path id="Shape-5" data-name="Shape" d="M12.13,27.13v4.315a2.976,2.976,0,0,0,.5.645V27.13Z" transform="translate(-0.713 -0.774)" fill="#ed5565"/>
  <path id="Shape-6" data-name="Shape" d="M14.3,27.13v5.743a2.976,2.976,0,0,0,.4,0h.1V27.09Z" transform="translate(-0.73 -0.774)" fill="#ed5565"/>
  <rect id="Rectangle-path-2" data-name="Rectangle-path" width="0.992" height="5.783" transform="translate(14.641 26.356)" fill="#ed5565"/>
  <rect id="Rectangle-path-3" data-name="Rectangle-path" width="4.652" height="5.247" transform="translate(11.001 21.099)" fill="#ed5565"/>
  <path id="Shape-7" data-name="Shape" d="M21.052,29.977V27.16H16.4v5.793h1.686A2.976,2.976,0,0,0,21.052,29.977Z" transform="translate(-0.747 -0.774)" fill="#ed5565"/>
  <rect id="Rectangle-path-4" data-name="Rectangle-path" width="4.652" height="5.247" transform="translate(15.653 21.099)" fill="#fff"/>
  <ellipse id="Oval" cx="1.508" cy="1.508" rx="1.508" ry="1.508" transform="translate(14.145 24.848)" fill="#4a89dc" stroke="#ed5565" stroke-width="0.5"/>
  <rect id="Rectangle-path-5" data-name="Rectangle-path" width="1.409" height="9.632" rx="0.704" transform="translate(8.064 21.099)" fill="#fff"/>
  <rect id="Rectangle-path-6" data-name="Rectangle-path" width="1.409" height="9.632" rx="0.704" transform="translate(21.833 21.099)" fill="#fff"/>
  <path id="Shape-8" data-name="Shape" d="M20.856,18.378V18.3c0-.794-1.984-1.438-4.533-1.438S11.79,17.5,11.79,18.3a.506.506,0,0,0,0,.1l.992,1.141.357-.1a1.676,1.676,0,0,0,.427-.089,4.96,4.96,0,0,1,.6-.218l.655.109.456-.307.536.208.506-.317.476.327.575-.258a5.554,5.554,0,0,0,.526.357l.5-.238.347.367.506-.188.4.436Z" transform="translate(-0.71 -0.691)" fill="#ed5565"/>
  <path id="Shape-9" data-name="Shape" d="M18.949,19.4l-.357-.367s-.476.238-.516.238a5.864,5.864,0,0,1-.546-.357l-.605.258-.506-.327-.536.317-.565-.208-.476.307-.694-.109a5.437,5.437,0,0,0-.625.218,1.845,1.845,0,0,1-.446.089l-.377.1.288.258.4.694h5.952l.4-.694.2-.169-.417-.436Z" transform="translate(-0.717 -0.707)" fill="#fff"/>
  <ellipse id="Oval-2" data-name="Oval" cx="2.688" cy="0.992" rx="2.688" ry="0.992" transform="translate(12.955 18.797)" fill="none" stroke="#fff" stroke-linecap="round" stroke-linejoin="round" stroke-width="1"/>
  <path id="Shape-10" data-name="Shape" stroke="#fff" d="M13.07,19.806c.427-.3,1.359-.446,3.3-.446" fill="none" transform="translate(-0.72 -0.712)" stroke-linecap="round" stroke-linejoin="round" stroke-width="0.51" fill-rule="evenodd"/>
  <path id="Shape-11" data-name="Shape" stroke="#fff" d="M16.39,19.36c1.984,0,2.877.149,3.3.446" fill="none" transform="translate(-0.747 -0.712)" stroke-linecap="round" stroke-linejoin="round" stroke-width="0.51" fill-rule="evenodd"/>
  <ellipse id="Oval-3" data-name="Oval" cx="2.688" cy="0.992" rx="2.688" ry="0.992" transform="translate(12.955 18.797)" fill="none" stroke="#fff" stroke-linecap="round" stroke-linejoin="round" stroke-width="0.5"/>
  <ellipse id="Oval-4" data-name="Oval" cx="2.688" cy="0.992" rx="2.688" ry="0.992" transform="translate(12.955 18.797)" fill="#ed5565"/>
  <path id="Shape-12" data-name="Shape" stroke="#fff" d="M14.208,17.567a.913.913,0,0,1,.169-1.428,1.666,1.666,0,0,1,1.686.079l.308.2.308-.2" fill="none" transform="translate(-0.727 -0.684)" stroke-linecap="round" stroke-linejoin="round" stroke-width="0.5" fill-rule="evenodd"/>
  <path id="Shape-13" data-name="Shape" stroke="#fff" d="M12,18.295a1.042,1.042,0,0,1,.109-1.538,2.123,2.123,0,0,1,1.8-.218" fill="none" transform="translate(-0.709 -0.688)" stroke-linecap="round" stroke-linejoin="round" stroke-width="0.5" fill-rule="evenodd"/>
  <path id="Shape-14" data-name="Shape" stroke="#fff" d="M18.565,17.567a.913.913,0,0,0-.169-1.428,1.666,1.666,0,0,0-1.686.079" fill="none" transform="translate(-0.75 -0.684)" stroke-linecap="round" stroke-linejoin="round" stroke-width="0.5" fill-rule="evenodd"/>
  <path id="Shape-15" data-name="Shape" stroke="#fff" d="M20.765,18.295a1.042,1.042,0,0,0-.109-1.538,2.123,2.123,0,0,0-1.8-.218" fill="none" transform="translate(-0.767 -0.688)" stroke-linecap="round" stroke-linejoin="round" stroke-width="0.5" fill-rule="evenodd"/>
  <path id="Shape-16" data-name="Shape" stroke="#fff" d="M16.39,17.362V16.43" fill="none" transform="translate(-0.747 -0.688)" stroke-linecap="round" stroke-linejoin="round" stroke-width="0.5" fill-rule="evenodd"/>
  <path id="Shape-17" data-name="Shape" stroke="#fff" d="M20.139,19.274c-.278.466-.992.317-.645-.288,0,0-.218.486-.655.407-.268,0-.407-.3-.337-.655a.575.575,0,0,1-.605.526c-.5,0-.446-.665-.446-.665s0,.585-.546.565a.555.555,0,0,1-.536-.575.542.542,0,1,1-1.081.03s0,.625-.446.665a.575.575,0,0,1-.605-.526c.06.357-.069.605-.337.655-.436.079-.655-.407-.655-.407.317.615-.367.754-.645.288" fill="none" transform="translate(-0.717 -0.705)" stroke-linecap="round" stroke-linejoin="round" stroke-width="0.3" fill-rule="evenodd"/>
  <ellipse id="Oval-5" data-name="Oval" cx="0.992" cy="0.992" rx="0.992" ry="0.992" transform="translate(14.651 14.046)" fill="#4a89dc"/>
</svg>
