<svg xmlns="http://www.w3.org/2000/svg" xmlns:xlink="http://www.w3.org/1999/xlink" width="70" height="47" viewBox="0 0 70 47">
  <defs>
    <clipPath id="clip-path">
      <path id="Rounded_Rectangle_7_copy" data-name="Rounded Rectangle 7 copy" d="M496.364,352h57.273A6.387,6.387,0,0,1,560,358.409v34.182A6.387,6.387,0,0,1,553.636,399H496.364A6.386,6.386,0,0,1,490,392.591V358.409A6.387,6.387,0,0,1,496.364,352Z" fill="#f5f7fa"/>
    </clipPath>
  </defs>
  <g id="Iran" transform="translate(-490 -352)">
    <g id="Rounded_Rectangle_7_copy-2" data-name="Rounded Rectangle 7 copy">
      <path id="Rounded_Rectangle_7_copy-3" data-name="Rounded Rectangle 7 copy" d="M496.364,352h57.273A6.387,6.387,0,0,1,560,358.409v34.182A6.387,6.387,0,0,1,553.636,399H496.364A6.386,6.386,0,0,1,490,392.591V358.409A6.387,6.387,0,0,1,496.364,352Z" fill="#f5f7fa"/>
      <g id="Clip" clip-path="url(#clip-path)">
        <rect id="Rectangle_1_copy" data-name="Rectangle 1 copy" width="70" height="16" transform="translate(490 352)" fill="#57a863"/>
        <rect id="Rectangle_1_copy_8" data-name="Rectangle 1 copy 8" width="70" height="16" transform="translate(490 384)" fill="#ed5565"/>
      </g>
    </g>
    <path id="Shape_11_copy" data-name="Shape 11 copy" d="M529.909,375.624l-.388-.672a1.957,1.957,0,0,1-.221-.818l0-.776a.842.842,0,0,0-.382-.656l-.653-.374a1.922,1.922,0,0,1-.6-.6l-.376-.652a.843.843,0,0,0-.658-.38h-.776a1.956,1.956,0,0,1-.819-.218l-.674-.385a.843.843,0,0,0-.759,0l-.65.379a1.922,1.922,0,0,1-.817.221h-.753a.842.842,0,0,0-.658.38l-.388.672a1.955,1.955,0,0,1-.6.6l-.671.391a.843.843,0,0,0-.377.659l0,.753a1.923,1.923,0,0,1-.218.818l-.376.652a.842.842,0,0,0,0,.759l.388.672a1.955,1.955,0,0,1,.221.818l0,.776a.842.842,0,0,0,.382.656l.653.374a1.923,1.923,0,0,1,.6.6l.376.652a.842.842,0,0,0,.658.38h.776a1.956,1.956,0,0,1,.819.218l.674.385a.842.842,0,0,0,.759,0l.65-.379a1.923,1.923,0,0,1,.817-.221h.753a.843.843,0,0,0,.658-.38l.388-.672a1.955,1.955,0,0,1,.6-.6l.671-.391a.842.842,0,0,0,.377-.659l0-.753a1.92,1.92,0,0,1,.217-.818l.376-.652A.843.843,0,0,0,529.909,375.624Zm-2.335.609-.227.394a1.161,1.161,0,0,0-.132.495l0,.455a.509.509,0,0,1-.228.4l-.405.236a1.183,1.183,0,0,0-.362.363l-.235.406a.509.509,0,0,1-.4.23h-.455a1.163,1.163,0,0,0-.494.134l-.393.229a.509.509,0,0,1-.459,0l-.407-.233a1.182,1.182,0,0,0-.5-.132h-.469a.509.509,0,0,1-.4-.23l-.227-.394a1.162,1.162,0,0,0-.363-.361l-.4-.226a.51.51,0,0,1-.231-.4l0-.469a1.183,1.183,0,0,0-.134-.495l-.235-.406a.51.51,0,0,1,0-.459l.227-.394a1.161,1.161,0,0,0,.131-.495l0-.455a.509.509,0,0,1,.228-.4l.406-.236a1.185,1.185,0,0,0,.362-.363l.235-.406a.509.509,0,0,1,.4-.229h.455a1.163,1.163,0,0,0,.494-.134l.393-.229a.509.509,0,0,1,.459,0l.408.233a1.184,1.184,0,0,0,.5.132h.469a.509.509,0,0,1,.4.229l.227.394a1.163,1.163,0,0,0,.363.361l.4.226a.509.509,0,0,1,.231.4l0,.469a1.18,1.18,0,0,0,.134.495l.235.406A.51.51,0,0,1,527.574,376.233Z" fill="#ed5565"/>
    <rect id="Rectangle_10" data-name="Rectangle 10" width="2" height="2" transform="translate(492 364)" fill="#f5f7fa"/>
    <rect id="Rectangle_10_copy" data-name="Rectangle 10 copy" width="2" height="2" transform="translate(496 364)" fill="#f5f7fa"/>
    <rect id="Rectangle_10_copy_2" data-name="Rectangle 10 copy 2" width="2" height="2" transform="translate(500 364)" fill="#f5f7fa"/>
    <rect id="Rectangle_10_copy_3" data-name="Rectangle 10 copy 3" width="2" height="2" transform="translate(504 364)" fill="#f5f7fa"/>
    <rect id="Rectangle_10_copy_4" data-name="Rectangle 10 copy 4" width="2" height="2" transform="translate(508 364)" fill="#f5f7fa"/>
    <rect id="Rectangle_10_copy_5" data-name="Rectangle 10 copy 5" width="2" height="2" transform="translate(512 364)" fill="#f5f7fa"/>
    <rect id="Rectangle_10_copy_6" data-name="Rectangle 10 copy 6" width="2" height="2" transform="translate(516 364)" fill="#f5f7fa"/>
    <rect id="Rectangle_10_copy_7" data-name="Rectangle 10 copy 7" width="2" height="2" transform="translate(520 364)" fill="#f5f7fa"/>
    <rect id="Rectangle_10_copy_7-2" data-name="Rectangle 10 copy 7" width="2" height="2" transform="translate(524 364)" fill="#f5f7fa"/>
    <rect id="Rectangle_10_copy_7-3" data-name="Rectangle 10 copy 7" width="2" height="2" transform="translate(528 364)" fill="#f5f7fa"/>
    <rect id="Rectangle_10_copy_7-4" data-name="Rectangle 10 copy 7" width="2" height="2" transform="translate(532 364)" fill="#f5f7fa"/>
    <rect id="Rectangle_10_copy_7-5" data-name="Rectangle 10 copy 7" width="2" height="2" transform="translate(536 364)" fill="#f5f7fa"/>
    <rect id="Rectangle_10_copy_7-6" data-name="Rectangle 10 copy 7" width="2" height="2" transform="translate(540 364)" fill="#f5f7fa"/>
    <rect id="Rectangle_10_copy_7-7" data-name="Rectangle 10 copy 7" width="2" height="2" transform="translate(544 364)" fill="#f5f7fa"/>
    <rect id="Rectangle_10_copy_8" data-name="Rectangle 10 copy 8" width="2" height="2" transform="translate(548 364)" fill="#f5f7fa"/>
    <rect id="Rectangle_10_copy_8-2" data-name="Rectangle 10 copy 8" width="2" height="2" transform="translate(552 364)" fill="#f5f7fa"/>
    <rect id="Rectangle_10_copy_8-3" data-name="Rectangle 10 copy 8" width="2" height="2" transform="translate(556 364)" fill="#f5f7fa"/>
    <rect id="Rectangle_10_copy_9" data-name="Rectangle 10 copy 9" width="2" height="2" transform="translate(492 386)" fill="#f5f7fa"/>
    <rect id="Rectangle_10_copy_9-2" data-name="Rectangle 10 copy 9" width="2" height="2" transform="translate(496 386)" fill="#f5f7fa"/>
    <rect id="Rectangle_10_copy_9-3" data-name="Rectangle 10 copy 9" width="2" height="2" transform="translate(500 386)" fill="#f5f7fa"/>
    <rect id="Rectangle_10_copy_9-4" data-name="Rectangle 10 copy 9" width="2" height="2" transform="translate(504 386)" fill="#f5f7fa"/>
    <rect id="Rectangle_10_copy_9-5" data-name="Rectangle 10 copy 9" width="2" height="2" transform="translate(508 386)" fill="#f5f7fa"/>
    <rect id="Rectangle_10_copy_9-6" data-name="Rectangle 10 copy 9" width="2" height="2" transform="translate(512 386)" fill="#f5f7fa"/>
    <rect id="Rectangle_10_copy_9-7" data-name="Rectangle 10 copy 9" width="2" height="2" transform="translate(516 386)" fill="#f5f7fa"/>
    <rect id="Rectangle_10_copy_9-8" data-name="Rectangle 10 copy 9" width="2" height="2" transform="translate(520 386)" fill="#f5f7fa"/>
    <rect id="Rectangle_10_copy_9-9" data-name="Rectangle 10 copy 9" width="2" height="2" transform="translate(524 386)" fill="#f5f7fa"/>
    <rect id="Rectangle_10_copy_9-10" data-name="Rectangle 10 copy 9" width="2" height="2" transform="translate(528 386)" fill="#f5f7fa"/>
    <rect id="Rectangle_10_copy_9-11" data-name="Rectangle 10 copy 9" width="2" height="2" transform="translate(532 386)" fill="#f5f7fa"/>
    <rect id="Rectangle_10_copy_9-12" data-name="Rectangle 10 copy 9" width="2" height="2" transform="translate(536 386)" fill="#f5f7fa"/>
    <rect id="Rectangle_10_copy_9-13" data-name="Rectangle 10 copy 9" width="2" height="2" transform="translate(540 386)" fill="#f5f7fa"/>
    <rect id="Rectangle_10_copy_9-14" data-name="Rectangle 10 copy 9" width="2" height="2" transform="translate(544 386)" fill="#f5f7fa"/>
    <rect id="Rectangle_10_copy_9-15" data-name="Rectangle 10 copy 9" width="2" height="2" transform="translate(548 386)" fill="#f5f7fa"/>
    <rect id="Rectangle_10_copy_9-16" data-name="Rectangle 10 copy 9" width="2" height="2" transform="translate(552 386)" fill="#f5f7fa"/>
    <rect id="Rectangle_10_copy_9-17" data-name="Rectangle 10 copy 9" width="2" height="2" transform="translate(556 386)" fill="#f5f7fa"/>
  </g>
</svg>
