<svg xmlns="http://www.w3.org/2000/svg" xmlns:xlink="http://www.w3.org/1999/xlink" width="70" height="47" viewBox="0 0 70 47">
  <defs>
    <clipPath id="clip-path">
      <path id="Rounded_Rectangle_7_copy" data-name="Rounded Rectangle 7 copy" d="M496.364,466h57.273A6.387,6.387,0,0,1,560,472.409v34.182A6.387,6.387,0,0,1,553.636,513H496.364A6.386,6.386,0,0,1,490,506.591V472.409A6.387,6.387,0,0,1,496.364,466Z" fill="#f5f7fa"/>
    </clipPath>
  </defs>
  <g id="Israel" transform="translate(-490 -466)">
    <g id="Rounded_Rectangle_7_copy-2" data-name="Rounded Rectangle 7 copy">
      <path id="Rounded_Rectangle_7_copy-3" data-name="Rounded Rectangle 7 copy" d="M496.364,466h57.273A6.387,6.387,0,0,1,560,472.409v34.182A6.387,6.387,0,0,1,553.636,513H496.364A6.386,6.386,0,0,1,490,506.591V472.409A6.387,6.387,0,0,1,496.364,466Z" fill="#f5f7fa"/>
      <g id="Clip" clip-path="url(#clip-path)">
        <path id="Shape_10" data-name="Shape 10" d="M534.9,484.712c.246-.409.05-.744-.436-.744h-4.795a1.74,1.74,0,0,1-1.337-.741l-2.417-3.953a.482.482,0,0,0-.9,0l-2.351,3.943a1.714,1.714,0,0,1-1.328.746h-4.794c-.486,0-.682.335-.435.744l2.426,4.027a1.587,1.587,0,0,1,0,1.487l-2.427,4.029c-.246.409-.05.744.436.744h4.794a1.715,1.715,0,0,1,1.328.746l2.351,3.944a.475.475,0,0,0,.889,0l2.351-3.944a1.715,1.715,0,0,1,1.328-.746h4.878c.486,0,.682-.335.436-.744l-2.427-4.029a1.589,1.589,0,0,1,0-1.487Zm-9.6-1.068c.092-.178.26-.178.374,0s.04.324-.166.324S525.2,483.823,525.292,483.644Zm-4.9,8.922c-.228,0-.322-.146-.208-.324a.228.228,0,0,1,.415,0C520.713,492.42,520.62,492.566,520.392,492.566Zm.208-5.839a.228.228,0,0,1-.416,0c-.114-.179-.021-.324.208-.324S520.714,486.548,520.6,486.727Zm5.067,8.6c-.114.179-.283.179-.374,0s0-.324.208-.324S525.781,495.145,525.666,495.324Zm2.063-3.505a1.709,1.709,0,0,1-1.326.747h-1.8a1.754,1.754,0,0,1-1.341-.738l-1-1.606a1.577,1.577,0,0,1-.014-1.485l.942-1.588a1.711,1.711,0,0,1,1.327-.747H526.4a1.709,1.709,0,0,1,1.326.747l.941,1.588a1.619,1.619,0,0,1,0,1.494Zm2.88.747c-.229,0-.322-.146-.208-.324a.228.228,0,0,1,.416,0C530.931,492.42,530.837,492.566,530.608,492.566Zm.208-5.839a.228.228,0,0,1-.416,0c-.114-.179-.021-.324.208-.324S530.931,486.548,530.816,486.727Z" fill="#4758a9"/>
        <rect id="Rectangle_1_copy" data-name="Rectangle 1 copy" width="70" height="6" transform="translate(490 466)" fill="#4758a9"/>
        <rect id="Rectangle_1_copy_17" data-name="Rectangle 1 copy 17" width="70" height="6" transform="translate(490 507)" fill="#4758a9"/>
      </g>
    </g>
  </g>
</svg>
