<svg xmlns="http://www.w3.org/2000/svg" width="70" height="47" viewBox="0 0 70 47">
  <g id="Korea" transform="translate(-570 -295)">
    <path id="Rounded_Rectangle_7_copy" data-name="Rounded Rectangle 7 copy" d="M576.364,295h57.273A6.386,6.386,0,0,1,640,301.409v34.182A6.386,6.386,0,0,1,633.636,342H576.364A6.386,6.386,0,0,1,570,335.591V301.409A6.387,6.387,0,0,1,576.364,295Z" fill="#f5f7fa"/>
    <path id="Shape_12" data-name="Shape 12" d="M616.979,316.529h0c.209,1.36-1.1-2.825-4.806-3.533a6.839,6.839,0,0,0-8.024,5.31,6.126,6.126,0,0,1-7.187,4.757,6.021,6.021,0,0,1-4.848-7.052,12.661,12.661,0,0,1,24.865.518Z" fill="#ed5565"/>
    <path id="Shape_13" data-name="Shape 13" d="M602.094,330.778h0a12.491,12.491,0,0,1-10.072-10.307c-.209-1.361,1.1,2.825,4.806,3.533a6.838,6.838,0,0,0,8.024-5.31,6.125,6.125,0,0,1,7.187-4.756,6.021,6.021,0,0,1,4.848,7.052,12.608,12.608,0,0,1-14.793,9.79Z" fill="#4758a9"/>
    <path id="Rectangle_12" data-name="Rectangle 12" d="M618.266,303.2l5.708,10.556-1.759.951-5.708-10.556Z" fill="#434a54"/>
    <path id="Rectangle_12_copy" data-name="Rectangle 12 copy" d="M621.785,301.3l5.708,10.556-1.759.951-5.708-10.555Z" fill="#434a54"/>
    <path id="Rectangle_12_copy_2" data-name="Rectangle 12 copy 2" d="M591.234,302.854l-5.708,10.212,1.759.92,5.708-10.212Z" fill="#434a54"/>
    <path id="Rectangle_12_copy_2-2" data-name="Rectangle 12 copy 2" d="M587.715,301.014l-5.708,10.212,1.759.92,5.708-10.212Z" fill="#434a54"/>
    <path id="Rectangle_12_copy_3" data-name="Rectangle 12 copy 3" d="M618.665,333.757l5.771-10.772-1.779-.971-5.771,10.772Z" fill="#434a54"/>
    <path id="Rectangle_12_copy_3-2" data-name="Rectangle 12 copy 3" d="M622.222,335.7l5.771-10.772-1.779-.971-5.771,10.772Z" fill="#434a54"/>
    <path id="Rectangle_12_copy_3-3" data-name="Rectangle 12 copy 3" d="M591.335,334.108l-5.771-10.421,1.779-.939,5.771,10.421Z" fill="#434a54"/>
    <path id="Rectangle_12_copy_3-4" data-name="Rectangle 12 copy 3" d="M587.778,335.986l-5.771-10.421,1.779-.939,5.771,10.421Z" fill="#434a54"/>
  </g>
</svg>
