<svg xmlns="http://www.w3.org/2000/svg" xmlns:xlink="http://www.w3.org/1999/xlink" width="70" height="47" viewBox="0 0 70 47">
  <defs>
    <clipPath id="clip-path">
      <path id="Rounded_Rectangle_7_copy" data-name="Rounded Rectangle 7 copy" d="M496.364,181h57.273A6.387,6.387,0,0,1,560,187.409v34.182A6.387,6.387,0,0,1,553.636,228H496.364A6.386,6.386,0,0,1,490,221.591V187.409A6.387,6.387,0,0,1,496.364,181Z" fill="#f5f7fa"/>
    </clipPath>
  </defs>
  <g id="India" transform="translate(-490 -181)">
    <g id="Rounded_Rectangle_7_copy-2" data-name="Rounded Rectangle 7 copy">
      <path id="Rounded_Rectangle_7_copy-3" data-name="Rounded Rectangle 7 copy" d="M496.364,181h57.273A6.387,6.387,0,0,1,560,187.409v34.182A6.387,6.387,0,0,1,553.636,228H496.364A6.386,6.386,0,0,1,490,221.591V187.409A6.387,6.387,0,0,1,496.364,181Z" fill="#f5f7fa"/>
      <g id="Clip" clip-path="url(#clip-path)">
        <rect id="Rectangle_1_copy" data-name="Rectangle 1 copy" width="70" height="16" transform="translate(490 181)" fill="#fc6e51"/>
        <rect id="Rectangle_1_copy_8" data-name="Rectangle 1 copy 8" width="70" height="16" transform="translate(490 213)" fill="#57a863"/>
      </g>
    </g>
    <path id="Shape_11" data-name="Shape 11" d="M530.909,204.624l-.388-.672a1.957,1.957,0,0,1-.221-.818l0-.776a.842.842,0,0,0-.382-.656l-.653-.374a1.922,1.922,0,0,1-.6-.6l-.376-.652a.842.842,0,0,0-.658-.38h-.776a1.956,1.956,0,0,1-.819-.218l-.674-.385a.842.842,0,0,0-.759,0l-.65.379a1.923,1.923,0,0,1-.817.221h-.753a.842.842,0,0,0-.658.38l-.388.672a1.956,1.956,0,0,1-.6.6l-.67.391a.842.842,0,0,0-.377.659l0,.752a1.923,1.923,0,0,1-.218.818l-.376.652a.842.842,0,0,0,0,.759l.388.672a1.956,1.956,0,0,1,.221.818l0,.776a.842.842,0,0,0,.382.656l.653.373a1.925,1.925,0,0,1,.6.6l.376.652a.842.842,0,0,0,.658.38h.776a1.957,1.957,0,0,1,.819.218l.674.385a.842.842,0,0,0,.759,0l.65-.379a1.923,1.923,0,0,1,.817-.221h.753a.842.842,0,0,0,.658-.38l.388-.672a1.955,1.955,0,0,1,.6-.6l.671-.391a.842.842,0,0,0,.377-.659l0-.753a1.921,1.921,0,0,1,.217-.818l.376-.652A.842.842,0,0,0,530.909,204.624Zm-2.335.609-.227.394a1.161,1.161,0,0,0-.131.495l0,.455a.509.509,0,0,1-.228.4l-.405.236a1.183,1.183,0,0,0-.362.363l-.235.406a.509.509,0,0,1-.4.23h-.455a1.161,1.161,0,0,0-.494.134l-.393.229a.509.509,0,0,1-.459,0l-.407-.233a1.184,1.184,0,0,0-.5-.132h-.469a.51.51,0,0,1-.4-.23l-.227-.394a1.16,1.16,0,0,0-.363-.361l-.4-.226a.509.509,0,0,1-.231-.4l0-.469a1.184,1.184,0,0,0-.134-.495l-.235-.406a.51.51,0,0,1,0-.459l.227-.394a1.164,1.164,0,0,0,.131-.495l0-.455a.509.509,0,0,1,.228-.4l.406-.236a1.183,1.183,0,0,0,.362-.363l.235-.406a.51.51,0,0,1,.4-.23h.455a1.163,1.163,0,0,0,.494-.133l.393-.229a.51.51,0,0,1,.459,0l.407.233a1.182,1.182,0,0,0,.5.132h.469a.509.509,0,0,1,.4.23l.228.394a1.163,1.163,0,0,0,.363.361l.395.226a.509.509,0,0,1,.231.4l0,.469a1.18,1.18,0,0,0,.134.495l.235.406A.509.509,0,0,1,528.574,205.233Z" fill="#4758a9"/>
  </g>
</svg>
