<svg id="Brazil" xmlns="http://www.w3.org/2000/svg" width="68.395" height="45.922" viewBox="0 0 68.395 45.922">
  <rect id="Rounded_Rectangle_7_copy-19" width="68.395" height="45.922" rx="3" transform="translate(0 0)" fill="#52c162"/>
  <path id="Shape" d="M7.93,23.148,34.516,2.63,61.1,23.148,34.516,43.667Z" transform="translate(-0.328 -0.187)" fill="#f6d660"/>
  <path id="Shape-2" data-name="Shape" d="M30.807,18.55a15.907,15.907,0,0,0-7.885,2.091,12.272,12.272,0,0,0,22.9,8.393A16.034,16.034,0,0,0,30.807,18.55Z" transform="translate(-0.664 -0.553)" fill="#4758a9"/>
  <path id="Shape-3" data-name="Shape" d="M30.815,18.5A16.034,16.034,0,0,1,45.833,28.986a12.183,12.183,0,0,0,.977-2.8,18.046,18.046,0,0,0-22.834-8.373,12.194,12.194,0,0,0-1.036,2.785A15.907,15.907,0,0,1,30.815,18.5Z" transform="translate(-0.673 -0.505)" fill="#fff"/>
  <path id="Shape-4" data-name="Shape" d="M46.863,26.069A12.282,12.282,0,0,0,24,17.685a18.046,18.046,0,0,1,22.873,8.383Z" transform="translate(-0.697 -0.382)" fill="#4758a9"/>
</svg>
