<svg xmlns="http://www.w3.org/2000/svg" xmlns:xlink="http://www.w3.org/1999/xlink" width="70" height="47" viewBox="0 0 70 47">
  <defs>
    <clipPath id="clip-path">
      <path id="Rounded_Rectangle_7_copy" data-name="Rounded Rectangle 7 copy" d="M896.364,409h57.273A6.387,6.387,0,0,1,960,415.409v34.182A6.386,6.386,0,0,1,953.636,456H896.364A6.386,6.386,0,0,1,890,449.591V415.409A6.386,6.386,0,0,1,896.364,409Z" fill="#ed5565"/>
    </clipPath>
  </defs>
  <g id="Portugal" transform="translate(-890 -409)">
    <g id="Rounded_Rectangle_7_copy-2" data-name="Rounded Rectangle 7 copy">
      <path id="Rounded_Rectangle_7_copy-3" data-name="Rounded Rectangle 7 copy" d="M896.364,409h57.273A6.387,6.387,0,0,1,960,415.409v34.182A6.386,6.386,0,0,1,953.636,456H896.364A6.386,6.386,0,0,1,890,449.591V415.409A6.386,6.386,0,0,1,896.364,409Z" fill="#ed5565"/>
      <g id="Clip" clip-path="url(#clip-path)">
        <rect id="Rectangle_1_copy_16" data-name="Rectangle 1 copy 16" width="18" height="47" transform="translate(890 409)" fill="#57a863"/>
      </g>
    </g>
    <circle id="Ellipse_6_copy" data-name="Ellipse 6 copy" cx="4" cy="4" r="4" transform="translate(904 429)" fill="#ffce54"/>
  </g>
</svg>
