<svg xmlns="http://www.w3.org/2000/svg" xmlns:xlink="http://www.w3.org/1999/xlink" width="70" height="47" viewBox="0 0 70 47">
  <defs>
    <clipPath id="clip-path">
      <path id="Rounded_Rectangle_7_copy" data-name="Rounded Rectangle 7 copy" d="M896.364,580h57.273A6.387,6.387,0,0,1,960,586.409v34.182A6.386,6.386,0,0,1,953.636,627H896.364A6.386,6.386,0,0,1,890,620.591V586.409A6.386,6.386,0,0,1,896.364,580Z" fill="#4a89dc"/>
    </clipPath>
  </defs>
  <g id="Russia" transform="translate(-890 -580)">
    <g id="Rounded_Rectangle_7_copy-2" data-name="Rounded Rectangle 7 copy">
      <path id="Rounded_Rectangle_7_copy-3" data-name="Rounded Rectangle 7 copy" d="M896.364,580h57.273A6.387,6.387,0,0,1,960,586.409v34.182A6.386,6.386,0,0,1,953.636,627H896.364A6.386,6.386,0,0,1,890,620.591V586.409A6.386,6.386,0,0,1,896.364,580Z" fill="#4a89dc"/>
      <g id="Clip" clip-path="url(#clip-path)">
        <rect id="Rectangle_1_copy_18" data-name="Rectangle 1 copy 18" width="70" height="16" transform="translate(890 580)" fill="#f5f7fa"/>
        <rect id="Rectangle_1_copy_18-2" data-name="Rectangle 1 copy 18" width="70" height="16" transform="translate(890 611)" fill="#ed5565"/>
      </g>
    </g>
  </g>
</svg>
