<svg xmlns="http://www.w3.org/2000/svg" width="70" height="47" viewBox="0 0 70 47">
  <g id="Turkey" transform="translate(-1130 -580)">
    <path id="Rounded_Rectangle_7_copy" data-name="Rounded Rectangle 7 copy" d="M1136.364,580h57.273a6.386,6.386,0,0,1,6.364,6.409v34.182a6.386,6.386,0,0,1-6.364,6.409h-57.273a6.387,6.387,0,0,1-6.364-6.409V586.409A6.387,6.387,0,0,1,1136.364,580Z" fill="#ed5565"/>
    <path id="Shape_6" data-name="Shape 6" d="M1149.545,607.469a14.057,14.057,0,0,1,17.694-17.234,13.483,13.483,0,0,1,4.741,2.707.38.38,0,0,1-.337.671.4.4,0,0,1-.049-.02h0a10.91,10.91,0,0,0-1.716-.731,11.107,11.107,0,0,0-13.944,7.172,12.078,12.078,0,0,0-.155,6.806,10.9,10.9,0,0,0,13.609,7.538,11.082,11.082,0,0,0,1.748-.685v0a.343.343,0,0,1,.05-.02.372.372,0,0,1,.464.257.384.384,0,0,1-.157.422,13.705,13.705,0,0,1-21.948-6.887Zm19.934,1.1.7-2.488a2.276,2.276,0,0,0-.572-2.069l-1.766-1.653c-.5-.47-.354-.851.331-.846l2.559.018a1.844,1.844,0,0,0,1.643-1.187l.9-2.713c.22-.658.569-.656.777,0l.86,2.738a1.928,1.928,0,0,0,1.622,1.258l2.605.119c.684.031.807.414.274.85l-2.049,1.677a2.175,2.175,0,0,0-.669,2.017l.551,2.229c.166.673-.165.91-.734.526l-2.068-1.39a2.036,2.036,0,0,0-2.081-.007l-2.18,1.44a.909.909,0,0,1-.469.181C1169.456,609.271,1169.352,609.016,1169.479,608.565Z" fill="#fff"/>
  </g>
</svg>
