<svg xmlns="http://www.w3.org/2000/svg" width="70" height="47" viewBox="0 0 70 47">
  <g id="Vietnam" transform="translate(-1210 -637)">
    <path id="Rounded_Rectangle_7_copy" data-name="Rounded Rectangle 7 copy" d="M1216.364,637h57.273a6.387,6.387,0,0,1,6.364,6.409v34.182a6.386,6.386,0,0,1-6.364,6.409h-57.273a6.386,6.386,0,0,1-6.364-6.409V643.409A6.387,6.387,0,0,1,1216.364,637Z" fill="#ed5565"/>
    <path id="Shape_19" data-name="Shape 19" d="M1240.153,667.959c-.739.489-1.152.19-.917-.665l.873-3.183a2.888,2.888,0,0,0-.766-2.639l-2.306-2.1c-.656-.6-.467-1.084.419-1.083l3.312,0a2.375,2.375,0,0,0,2.114-1.53l1.138-3.471c.276-.842.728-.843,1.005,0l1.147,3.49a2.5,2.5,0,0,0,2.114,1.594l3.375.131c.886.034,1.049.522.364,1.084l-2.633,2.157a2.75,2.75,0,0,0-.841,2.581l.739,2.843c.223.858-.2,1.163-.944.679l-2.694-1.759a2.666,2.666,0,0,0-2.694.008Z" fill="#f6d660"/>
  </g>
</svg>
