<svg xmlns="http://www.w3.org/2000/svg" width="70" height="47" viewBox="0 0 70 47">
  <g id="China" transform="translate(-170 -580)">
    <path id="Rounded_Rectangle_7_copy" data-name="Rounded Rectangle 7 copy" d="M176.364,580h57.273A6.387,6.387,0,0,1,240,586.409v34.182A6.387,6.387,0,0,1,233.636,627H176.364A6.386,6.386,0,0,1,170,620.591V586.409A6.386,6.386,0,0,1,176.364,580Z" fill="#ed5565"/>
    <path id="Shape_2_copy_9" data-name="Shape 2 copy 9" d="M180.3,605.708c-.825.586-1.3.256-1.066-.733l.889-3.683a3.336,3.336,0,0,0-.958-3l-2.692-2.331c-.766-.663-.567-1.229.442-1.257l3.768-.107a2.708,2.708,0,0,0,2.355-1.827l1.181-4.023c.286-.976.8-.991,1.144-.034l1.42,3.968a2.846,2.846,0,0,0,2.457,1.76l3.844.039c1.009.01,1.211.565.449,1.233l-2.925,2.564a3.177,3.177,0,0,0-.872,2.991l.934,3.24c.282.978-.191,1.342-1.052.811l-3.123-1.93a3.011,3.011,0,0,0-3.064.1Z" fill="#f6bb42"/>
    <path id="Shape_2_copy_10" data-name="Shape 2 copy 10" d="M197.442,590.149c-.279.2-.441.089-.36-.255l.3-1.279a1.179,1.179,0,0,0-.324-1.043l-.909-.809c-.258-.23-.192-.427.149-.437l1.273-.037a.919.919,0,0,0,.8-.634l.4-1.4c.1-.339.271-.344.386-.012l.48,1.378a.963.963,0,0,0,.83.611l1.3.014c.341,0,.409.2.152.428l-.988.89a1.124,1.124,0,0,0-.295,1.039l.315,1.125c.1.339-.065.466-.355.281l-1.054-.67a.993.993,0,0,0-1.035.034Z" fill="#f6bb42"/>
    <path id="Shape_2_copy_11" data-name="Shape 2 copy 11" d="M197.442,608.9c-.279.2-.441.089-.36-.254l.3-1.279a1.179,1.179,0,0,0-.324-1.043l-.909-.809c-.258-.23-.192-.427.149-.437l1.273-.037a.919.919,0,0,0,.8-.634l.4-1.4c.1-.339.271-.344.386-.012l.48,1.378a.963.963,0,0,0,.83.611l1.3.014c.341,0,.409.2.152.428l-.988.89a1.124,1.124,0,0,0-.295,1.039l.315,1.125c.1.339-.065.466-.355.281l-1.054-.67a.993.993,0,0,0-1.035.034Z" fill="#f6bb42"/>
    <path id="Shape_2_copy_12" data-name="Shape 2 copy 12" d="M204.375,603.542c-.279.2-.441.089-.36-.255l.3-1.279a1.179,1.179,0,0,0-.324-1.043l-.909-.809c-.259-.23-.191-.427.149-.437l1.273-.037a.919.919,0,0,0,.8-.634l.4-1.4c.1-.339.27-.344.386-.012l.479,1.378a.963.963,0,0,0,.83.611l1.3.013c.341,0,.409.2.152.428l-.988.89a1.124,1.124,0,0,0-.295,1.039l.315,1.125c.1.34-.065.466-.355.281l-1.055-.67a.993.993,0,0,0-1.035.034Z" fill="#f6bb42"/>
    <path id="Shape_2_copy_13" data-name="Shape 2 copy 13" d="M204.375,596.4c-.279.2-.441.089-.36-.254l.3-1.279a1.179,1.179,0,0,0-.324-1.043l-.909-.809c-.259-.23-.191-.427.149-.437l1.273-.037a.919.919,0,0,0,.8-.634l.4-1.4c.1-.339.27-.344.386-.012l.479,1.378a.963.963,0,0,0,.83.611l1.3.014c.341,0,.409.2.152.428l-.988.89a1.123,1.123,0,0,0-.295,1.039l.315,1.125c.1.339-.065.466-.355.281l-1.055-.67a.993.993,0,0,0-1.035.034Z" fill="#f6bb42"/>
  </g>
</svg>
